{
    "asset" : {
        "generator" : "Khronos glTF Blender I/O v1.1.46",
        "version" : "2.0"
    },
    "scene" : 0,
    "scenes" : [
        {
            "name" : "Scene",
            "nodes" : [
                3
            ]
        }
    ],
    "nodes" : [
        {
            "name" : "Root",
            "rotation" : [
                -0.49999991059303284,
                -0.5000001192092896,
                0.4999999403953552,
                0.5000000596046448
            ],
            "scale" : [
                1,
                0.9999999403953552,
                1
            ],
            "translation" : [
                0,
                0.4499998986721039,
                -2.9802322387695312e-08
            ]
        },
        {
            "name" : "Limb",
            "rotation" : [
                -0.5,
                -0.5000000596046448,
                0.5000000596046448,
                0.5
            ],
            "scale" : [
                1,
                0.9999999403953552,
                1
            ],
            "translation" : [
                0,
                0.19999997317790985,
                -4.371138828673793e-08
            ]
        },
        {
            "mesh" : 0,
            "name" : "Model",
            "skin" : 0
        },
        {
            "children" : [
                2,
                0,
                1
            ],
            "name" : "Armature"
        }
    ],
    "animations" : [
        {
            "channels" : [
                {
                    "sampler" : 0,
                    "target" : {
                        "node" : 0,
                        "path" : "translation"
                    }
                },
                {
                    "sampler" : 1,
                    "target" : {
                        "node" : 0,
                        "path" : "rotation"
                    }
                },
                {
                    "sampler" : 2,
                    "target" : {
                        "node" : 0,
                        "path" : "scale"
                    }
                },
                {
                    "sampler" : 3,
                    "target" : {
                        "node" : 1,
                        "path" : "translation"
                    }
                },
                {
                    "sampler" : 4,
                    "target" : {
                        "node" : 1,
                        "path" : "rotation"
                    }
                },
                {
                    "sampler" : 5,
                    "target" : {
                        "node" : 1,
                        "path" : "scale"
                    }
                }
            ],
            "name" : "Attack",
            "samplers" : [
                {
                    "input" : 7,
                    "interpolation" : "LINEAR",
                    "output" : 8
                },
                {
                    "input" : 7,
                    "interpolation" : "LINEAR",
                    "output" : 9
                },
                {
                    "input" : 7,
                    "interpolation" : "LINEAR",
                    "output" : 10
                },
                {
                    "input" : 7,
                    "interpolation" : "LINEAR",
                    "output" : 11
                },
                {
                    "input" : 7,
                    "interpolation" : "LINEAR",
                    "output" : 12
                },
                {
                    "input" : 7,
                    "interpolation" : "LINEAR",
                    "output" : 13
                }
            ]
        },
        {
            "channels" : [
                {
                    "sampler" : 0,
                    "target" : {
                        "node" : 0,
                        "path" : "translation"
                    }
                },
                {
                    "sampler" : 1,
                    "target" : {
                        "node" : 0,
                        "path" : "rotation"
                    }
                },
                {
                    "sampler" : 2,
                    "target" : {
                        "node" : 0,
                        "path" : "scale"
                    }
                },
                {
                    "sampler" : 3,
                    "target" : {
                        "node" : 1,
                        "path" : "translation"
                    }
                },
                {
                    "sampler" : 4,
                    "target" : {
                        "node" : 1,
                        "path" : "rotation"
                    }
                },
                {
                    "sampler" : 5,
                    "target" : {
                        "node" : 1,
                        "path" : "scale"
                    }
                }
            ],
            "name" : "Build loop",
            "samplers" : [
                {
                    "input" : 14,
                    "interpolation" : "LINEAR",
                    "output" : 15
                },
                {
                    "input" : 14,
                    "interpolation" : "LINEAR",
                    "output" : 16
                },
                {
                    "input" : 14,
                    "interpolation" : "LINEAR",
                    "output" : 17
                },
                {
                    "input" : 14,
                    "interpolation" : "LINEAR",
                    "output" : 18
                },
                {
                    "input" : 14,
                    "interpolation" : "LINEAR",
                    "output" : 19
                },
                {
                    "input" : 14,
                    "interpolation" : "LINEAR",
                    "output" : 20
                }
            ]
        },
        {
            "channels" : [
                {
                    "sampler" : 0,
                    "target" : {
                        "node" : 0,
                        "path" : "translation"
                    }
                },
                {
                    "sampler" : 1,
                    "target" : {
                        "node" : 0,
                        "path" : "rotation"
                    }
                },
                {
                    "sampler" : 2,
                    "target" : {
                        "node" : 0,
                        "path" : "scale"
                    }
                },
                {
                    "sampler" : 3,
                    "target" : {
                        "node" : 1,
                        "path" : "translation"
                    }
                },
                {
                    "sampler" : 4,
                    "target" : {
                        "node" : 1,
                        "path" : "rotation"
                    }
                },
                {
                    "sampler" : 5,
                    "target" : {
                        "node" : 1,
                        "path" : "scale"
                    }
                }
            ],
            "name" : "Empty",
            "samplers" : [
                {
                    "input" : 21,
                    "interpolation" : "LINEAR",
                    "output" : 22
                },
                {
                    "input" : 21,
                    "interpolation" : "LINEAR",
                    "output" : 23
                },
                {
                    "input" : 21,
                    "interpolation" : "LINEAR",
                    "output" : 24
                },
                {
                    "input" : 21,
                    "interpolation" : "LINEAR",
                    "output" : 25
                },
                {
                    "input" : 21,
                    "interpolation" : "LINEAR",
                    "output" : 26
                },
                {
                    "input" : 21,
                    "interpolation" : "LINEAR",
                    "output" : 27
                }
            ]
        }
    ],
    "meshes" : [
        {
            "name" : "Cylinder.001",
            "primitives" : [
                {
                    "attributes" : {
                        "POSITION" : 0,
                        "NORMAL" : 1,
                        "TEXCOORD_0" : 2,
                        "JOINTS_0" : 3,
                        "WEIGHTS_0" : 4
                    },
                    "indices" : 5
                }
            ]
        }
    ],
    "skins" : [
        {
            "inverseBindMatrices" : 6,
            "joints" : [
                0,
                1
            ],
            "name" : "Armature"
        }
    ],
    "accessors" : [
        {
            "bufferView" : 0,
            "componentType" : 5126,
            "count" : 98,
            "max" : [
                1.4991624355316162,
                0.4000000059604645,
                1.4966503381729126
            ],
            "min" : [
                -1.499162197113037,
                0,
                -2.1000001430511475
            ],
            "type" : "VEC3"
        },
        {
            "bufferView" : 1,
            "componentType" : 5126,
            "count" : 98,
            "type" : "VEC3"
        },
        {
            "bufferView" : 2,
            "componentType" : 5126,
            "count" : 98,
            "type" : "VEC2"
        },
        {
            "bufferView" : 3,
            "componentType" : 5123,
            "count" : 98,
            "type" : "VEC4"
        },
        {
            "bufferView" : 4,
            "componentType" : 5126,
            "count" : 98,
            "type" : "VEC4"
        },
        {
            "bufferView" : 5,
            "componentType" : 5123,
            "count" : 276,
            "type" : "SCALAR"
        },
        {
            "bufferView" : 6,
            "componentType" : 5126,
            "count" : 2,
            "type" : "MAT4"
        },
        {
            "bufferView" : 7,
            "componentType" : 5126,
            "count" : 14,
            "max" : [
                0.5833333333333334
            ],
            "min" : [
                0.041666666666666664
            ],
            "type" : "SCALAR"
        },
        {
            "bufferView" : 8,
            "componentType" : 5126,
            "count" : 14,
            "type" : "VEC3"
        },
        {
            "bufferView" : 9,
            "componentType" : 5126,
            "count" : 14,
            "type" : "VEC4"
        },
        {
            "bufferView" : 10,
            "componentType" : 5126,
            "count" : 14,
            "type" : "VEC3"
        },
        {
            "bufferView" : 11,
            "componentType" : 5126,
            "count" : 14,
            "type" : "VEC3"
        },
        {
            "bufferView" : 12,
            "componentType" : 5126,
            "count" : 14,
            "type" : "VEC4"
        },
        {
            "bufferView" : 13,
            "componentType" : 5126,
            "count" : 14,
            "type" : "VEC3"
        },
        {
            "bufferView" : 14,
            "componentType" : 5126,
            "count" : 54,
            "max" : [
                2.25
            ],
            "min" : [
                0.041666666666666664
            ],
            "type" : "SCALAR"
        },
        {
            "bufferView" : 15,
            "componentType" : 5126,
            "count" : 54,
            "type" : "VEC3"
        },
        {
            "bufferView" : 16,
            "componentType" : 5126,
            "count" : 54,
            "type" : "VEC4"
        },
        {
            "bufferView" : 17,
            "componentType" : 5126,
            "count" : 54,
            "type" : "VEC3"
        },
        {
            "bufferView" : 18,
            "componentType" : 5126,
            "count" : 54,
            "type" : "VEC3"
        },
        {
            "bufferView" : 19,
            "componentType" : 5126,
            "count" : 54,
            "type" : "VEC4"
        },
        {
            "bufferView" : 20,
            "componentType" : 5126,
            "count" : 54,
            "type" : "VEC3"
        },
        {
            "bufferView" : 21,
            "componentType" : 5126,
            "count" : 1,
            "max" : [
                0.041666666666666664
            ],
            "min" : [
                0.041666666666666664
            ],
            "type" : "SCALAR"
        },
        {
            "bufferView" : 22,
            "componentType" : 5126,
            "count" : 1,
            "type" : "VEC3"
        },
        {
            "bufferView" : 23,
            "componentType" : 5126,
            "count" : 1,
            "type" : "VEC4"
        },
        {
            "bufferView" : 24,
            "componentType" : 5126,
            "count" : 1,
            "type" : "VEC3"
        },
        {
            "bufferView" : 25,
            "componentType" : 5126,
            "count" : 1,
            "type" : "VEC3"
        },
        {
            "bufferView" : 26,
            "componentType" : 5126,
            "count" : 1,
            "type" : "VEC4"
        },
        {
            "bufferView" : 27,
            "componentType" : 5126,
            "count" : 1,
            "type" : "VEC3"
        }
    ],
    "bufferViews" : [
        {
            "buffer" : 0,
            "byteLength" : 1176,
            "byteOffset" : 0
        },
        {
            "buffer" : 0,
            "byteLength" : 1176,
            "byteOffset" : 1176
        },
        {
            "buffer" : 0,
            "byteLength" : 784,
            "byteOffset" : 2352
        },
        {
            "buffer" : 0,
            "byteLength" : 784,
            "byteOffset" : 3136
        },
        {
            "buffer" : 0,
            "byteLength" : 1568,
            "byteOffset" : 3920
        },
        {
            "buffer" : 0,
            "byteLength" : 552,
            "byteOffset" : 5488
        },
        {
            "buffer" : 0,
            "byteLength" : 128,
            "byteOffset" : 6040
        },
        {
            "buffer" : 0,
            "byteLength" : 56,
            "byteOffset" : 6168
        },
        {
            "buffer" : 0,
            "byteLength" : 168,
            "byteOffset" : 6224
        },
        {
            "buffer" : 0,
            "byteLength" : 224,
            "byteOffset" : 6392
        },
        {
            "buffer" : 0,
            "byteLength" : 168,
            "byteOffset" : 6616
        },
        {
            "buffer" : 0,
            "byteLength" : 168,
            "byteOffset" : 6784
        },
        {
            "buffer" : 0,
            "byteLength" : 224,
            "byteOffset" : 6952
        },
        {
            "buffer" : 0,
            "byteLength" : 168,
            "byteOffset" : 7176
        },
        {
            "buffer" : 0,
            "byteLength" : 216,
            "byteOffset" : 7344
        },
        {
            "buffer" : 0,
            "byteLength" : 648,
            "byteOffset" : 7560
        },
        {
            "buffer" : 0,
            "byteLength" : 864,
            "byteOffset" : 8208
        },
        {
            "buffer" : 0,
            "byteLength" : 648,
            "byteOffset" : 9072
        },
        {
            "buffer" : 0,
            "byteLength" : 648,
            "byteOffset" : 9720
        },
        {
            "buffer" : 0,
            "byteLength" : 864,
            "byteOffset" : 10368
        },
        {
            "buffer" : 0,
            "byteLength" : 648,
            "byteOffset" : 11232
        },
        {
            "buffer" : 0,
            "byteLength" : 4,
            "byteOffset" : 11880
        },
        {
            "buffer" : 0,
            "byteLength" : 12,
            "byteOffset" : 11884
        },
        {
            "buffer" : 0,
            "byteLength" : 16,
            "byteOffset" : 11896
        },
        {
            "buffer" : 0,
            "byteLength" : 12,
            "byteOffset" : 11912
        },
        {
            "buffer" : 0,
            "byteLength" : 12,
            "byteOffset" : 11924
        },
        {
            "buffer" : 0,
            "byteLength" : 16,
            "byteOffset" : 11936
        },
        {
            "buffer" : 0,
            "byteLength" : 12,
            "byteOffset" : 11952
        }
    ],
    "buffers" : [
        {
            "byteLength" : 11964,
            "uri" : "data:application/octet-stream;base64,"
        }
    ]
}
